<svg id="Слой_1" data-name="Слой 1" xmlns="http://www.w3.org/2000/svg" viewBox="0 0 464.15 511.25"><defs><style>.cls-1{fill:#fff;}</style></defs><title>1</title><path class="cls-1" d="M456.65,496.25h-7.21v-23a19,19,0,0,0-19-19h-8v-183h1.7a10.21,10.21,0,0,0,8.5-4.31,9.9,9.9,0,0,0-.18-11.47l-179.62-245A25.45,25.45,0,0,0,226.05.77a25.91,25.91,0,0,0-14.51,9.92L136,113.71a11.23,11.23,0,0,0,.47,13.91L249.32,261.36h0l11,13L239.65,279a9.13,9.13,0,0,0-4.33,2.25,8.91,8.91,0,0,0-.44,12.46L323.62,391a7.49,7.49,0,0,0,11.07-10.1L253,291.37l20.43-4.65a8.92,8.92,0,0,0,3.24-1.5,8.1,8.1,0,0,0,2.11-2.18,8.9,8.9,0,0,0-.58-10.7l-8.57-10.15a20.36,20.36,0,0,0,11.82-18.45v-59.1a20.39,20.39,0,0,0-20.39-20.39H202a20.44,20.44,0,0,0-11.88,3.81l-17.07-20.23L232,67.43l10.13,13.82a7.68,7.68,0,0,0,9.22,2.65,7.54,7.54,0,0,0,3.07-11.37L238.18,50.35a7.53,7.53,0,0,0-12.25-.12L163.1,136l-14-16.59L223.29,18.13a11,11,0,0,1,6.09-4.27,10.57,10.57,0,0,1,11.14,4l174.7,238.4h-26.8L273.5,99.43a7.7,7.7,0,0,0-9.87-2.36,7.5,7.5,0,0,0-2.4,11L377.84,267.19a10,10,0,0,0,8,4.06h21.59v183h-5.8l-45.63-50a7.53,7.53,0,1,0-11.12,10.15L428.45,506a16.21,16.21,0,0,0,12,5.28h15.95a7.7,7.7,0,0,0,7.74-6.57,7.5,7.5,0,0,0-7.45-8.43ZM239.44,226.51v-4.26h27v21.62a5.38,5.38,0,0,1-5.38,5.38h-2.44Zm27-41.88v21.62h-27v-27h21.62A5.38,5.38,0,0,1,266.44,184.63Zm-63.84-5.38h21.84V208l-23.88-28.31a5.38,5.38,0,0,1,2-.41ZM416,469.25h14.46a4,4,0,0,1,3.95,3.95v16.22Z"/><path class="cls-1" d="M172.43,291.4l20.38-4.63a8.9,8.9,0,0,0,4.84-14.43l-86.11-102.1a11.27,11.27,0,0,0-17.71.6l-62,84.61a9.9,9.9,0,0,0-.19,11.48,10.25,10.25,0,0,0,8.51,4.32h1.29v183h-8a19,19,0,0,0-19,19v23H7.79a7.68,7.68,0,0,0-7.73,6.56,7.5,7.5,0,0,0,7.44,8.44H355.89a7.67,7.67,0,0,0,5.74-2.44,7.52,7.52,0,0,0,0-10.12ZM301.1,454.25H272.44v-31.4Zm-198-270.77L117,200,75.79,256.25H49.73ZM56.44,271.25H78.82a9.94,9.94,0,0,0,8-4.07l40.55-55.38,52.71,62.56-20.65,4.7a8.9,8.9,0,0,0-4.78,14.74l48.06,52.71a40.62,40.62,0,0,0-11.28,28.09v27.16a7.69,7.69,0,0,0,6.57,7.73,7.5,7.5,0,0,0,8.43-7.45V374.22a25.69,25.69,0,0,1,6.39-17l44.61,49.15v47.85h-51V434a7.72,7.72,0,0,0-5.4-7.45c-5.52-1.64-10.6,2.19-10.6,7.12v20.6h-134ZM317,496.25H29.44V473.2a4,4,0,0,1,3.95-3.95H317.14l24.64,27Z"/></svg>