<svg id="Слой_1" data-name="Слой 1" xmlns="http://www.w3.org/2000/svg" viewBox="0 0 512 512"><defs><style>.cls-1{fill:#fff;}</style></defs><title>2</title><g id="_094---Law" data-name="094---Law"><path id="Shape" class="cls-1" d="M318.46,258.13a25.59,25.59,0,0,0-29-4.95L276.22,240l18.09-18.17a25.58,25.58,0,0,0,0-36.18l-6-6.06c11.35-11.44,17.75-15.79,19.2-26.71a34.15,34.15,0,0,0,29-9.47l12.12-12.12a17.06,17.06,0,0,0,0-24.15l-96.6-96.43a17.06,17.06,0,0,0-24.06,0l-12.12,12a34.15,34.15,0,0,0-9.47,29.1,25.66,25.66,0,0,0-14.68,7.17L59.05,191.74a25.6,25.6,0,0,0-7.25,14.94,34.15,34.15,0,0,0-29,9.21L10.75,228a17.06,17.06,0,0,0,0,24.06l96.51,96.6a17.06,17.06,0,0,0,24.15,0l12.12-12.12A33.35,33.35,0,0,0,153,307.2c11.1-1.54,15.45-7.94,26.71-19.2,7.17,7.17,12.29,13.48,24.15,13.48a25.56,25.56,0,0,0,18-7.17L240,276.22l13.14,13.23a25.59,25.59,0,0,0,5,29c81.06,80.9-138.58-139.26,181.08,181.08a42.72,42.72,0,1,0,60.41-60.41c-378.79-378.71-11.86-11.87-181.08-181Zm96.6,193.11,36.18-36.18,12,12-36.18,36.18ZM300.37,336.55l36.18-36.18L439,402.77,402.77,439ZM228,34.9l12-12.12,96.51,96.69-12.28,11.94a17.06,17.06,0,0,1-24.15,0L228,59.05a17.08,17.08,0,0,1,0-24.15Zm-96.6,289.37-11.94,12.28L22.78,240,34.9,228a17.08,17.08,0,0,1,24.15,0l72.36,72.36a17.07,17.07,0,0,1,0,23.9Zm24.15-36.18a8.55,8.55,0,0,1-12,0l-48.3-48.3,18.09-17.92a8.54,8.54,0,1,0-12-12.12L83.2,228c-13.31-13.31-14.93-13.65-14.93-18.18a8.52,8.52,0,0,1,2.47-6L203.86,71.08a8.53,8.53,0,0,1,12,0L228,83.2,125.61,185.6a8.54,8.54,0,0,0,12.12,12l102.4-102.4,48.3,48.3a8.53,8.53,0,0,1,0,12c.76,0-1.2.77-132.87,132.78ZM209.83,282a8.53,8.53,0,0,1-12,0L191.74,276l84.48-84.48,6.06,6.06a8.53,8.53,0,0,1,0,12c-34.22,34.47,5.72-5.29-72.45,72.7Zm54.7-30,11.69,12.46-11.69,11.69-12.46-11.69Zm3.5,48.3a8.54,8.54,0,0,1,2.56-6.06l24.07-24.06a8.53,8.53,0,0,1,12.11,0l17.5,18.09-35.93,35.93c-19.71-19.37-20.65-19.29-20.65-23.9ZM487.42,487.42a25.58,25.58,0,0,1-36.18,0l-12.11-12,36.26-36.26,12,12.11a25.58,25.58,0,0,1,0,36.18Z"/><path id="Shape-2" data-name="Shape" class="cls-1" d="M213.33,452.27v-8.54A34.13,34.13,0,0,0,179.2,409.6H59.73A34.13,34.13,0,0,0,25.6,443.73v8.54A25.6,25.6,0,0,0,0,477.87v25.6A8.53,8.53,0,0,0,8.53,512H230.4a8.53,8.53,0,0,0,8.53-8.53v-25.6A25.6,25.6,0,0,0,213.33,452.27ZM42.67,443.73a17.06,17.06,0,0,1,17.06-17.06H179.2a17.06,17.06,0,0,1,17.07,17.06v8.54H42.67Zm179.2,51.2H17.07V477.87a8.53,8.53,0,0,1,8.53-8.54H213.33a8.54,8.54,0,0,1,8.54,8.54Z"/><path id="Shape-3" data-name="Shape" class="cls-1" d="M213.33,375.47V341.33a8.53,8.53,0,0,0-17.06,0v34.14a8.53,8.53,0,0,0,17.06,0Z"/><path id="Shape-4" data-name="Shape" class="cls-1" d="M273.07,401.07H238.93a8.53,8.53,0,0,0,0,17.06h34.14a8.53,8.53,0,1,0,0-17.06Z"/><path id="Shape-5" data-name="Shape" class="cls-1" d="M236.46,390.06l25.6-25.6a8.57,8.57,0,0,0-12.12-12.12l-25.6,25.6a8.57,8.57,0,0,0,12.12,12.12Z"/></g></svg>