<svg id="Слой_1" data-name="Слой 1" xmlns="http://www.w3.org/2000/svg" viewBox="0 0 496 496"><defs><style>.cls-1{fill:#fff;}</style></defs><title>4</title><path class="cls-1" d="M456,184a39.78,39.78,0,0,0-23.79,8H400V0H64A64,64,0,0,0,0,64V440a56,56,0,0,0,56,56H400V480a40,40,0,0,1,0-80V256h32.21A39.95,39.95,0,1,0,456,184ZM349.48,416H80v16H344.64a50.32,50.32,0,0,0,0,16H304v16h45.48a56.34,56.34,0,0,0,11.37,16H56a39.79,39.79,0,0,1-31.79-16H288V448H16.81a39.91,39.91,0,0,1,0-16H64V416H24.21A39.79,39.79,0,0,1,56,400H360.84A56.51,56.51,0,0,0,349.48,416ZM384,384H64V144H48V384.64a55.79,55.79,0,0,0-32,16.25V64A48,48,0,0,1,48,18.8V128H64V16H384V192H352V48H96V224h56v48a16,16,0,0,0-16,16v16a16,16,0,0,0,16,16H280a16,16,0,0,0,16-16V288a16,16,0,0,0-16-16V256H384ZM152,160V144H280v16ZM280,288v16H152V288ZM168,272V176h96v96Zm112-96a16,16,0,0,0,16-16V144a16,16,0,0,0-16-16H152a16,16,0,0,0-16,16v16a16,16,0,0,0,16,16v32H112V64H336V192H280Zm199.86,50.59A24.1,24.1,0,0,1,455.45,248a23.77,23.77,0,0,1-15.15-6L438,240H280V208H438l2.26-2a23.74,23.74,0,0,1,15.7-6A24,24,0,0,1,479.86,226.59Z"/><path class="cls-1" d="M352,336h16v16H352Z"/><path class="cls-1" d="M320,336h16v16H320Z"/><path class="cls-1" d="M144,336H304v16H144Z"/><path class="cls-1" d="M112,336h16v16H112Z"/><path class="cls-1" d="M80,336H96v16H80Z"/></svg>