<svg id="Слой_1" data-name="Слой 1" xmlns="http://www.w3.org/2000/svg" viewBox="0 0 480 448"><defs><style>.cls-1{fill:#e6e7ed;}</style></defs><title>1</title><path class="cls-1" d="M456,96H352V32A32,32,0,0,0,320,0H160a32,32,0,0,0-32,32V96H23.77A23.77,23.77,0,0,0,0,119.77V216A8,8,0,0,0,4,223l12,6.84V424.23A23.77,23.77,0,0,0,39.77,448H440a24,24,0,0,0,24-24V229.79L476,223a8,8,0,0,0,4-6.95V120A24,24,0,0,0,456,96ZM320,96V64h16V96Zm-16,0H176V48H304ZM160,16H320a16,16,0,0,1,16,16V48H320V40a8,8,0,0,0-8-8H168a8,8,0,0,0-8,8v8H144V32A16,16,0,0,1,160,16ZM144,64h16V96H144ZM464,211.36,413.87,240H400v16h16a8,8,0,0,0,4-1.05l28-16V424a8,8,0,0,1-8,8H40a8,8,0,0,1-8-8V238.93l28,16A8,8,0,0,0,64,256H80V240H66.13L16,211.36V120a8,8,0,0,1,8-8H456a8,8,0,0,1,8,8Z"/><path class="cls-1" d="M32,136v32H48V144H72V128H40A8,8,0,0,0,32,136Z"/><path class="cls-1" d="M440,128H408v16h24v24h16V136A8,8,0,0,0,440,128Z"/><path class="cls-1" d="M341.94,184H360V168H262.53a23.86,23.86,0,0,0-45.06,0H120v16h18.06l-49,84A7.91,7.91,0,0,0,88,272v32c0,22.05,28.71,40,64,40s64-17.95,64-40V272a7.91,7.91,0,0,0-1.09-4l-49-84h51.53A24,24,0,0,0,232,198.53V400H184v16H296V400H248V198.53A24,24,0,0,0,262.53,184h51.53l-49,84a7.91,7.91,0,0,0-1.09,4v32c0,22.05,28.71,40,64,40s64-17.95,64-40V272a7.91,7.91,0,0,0-1.09-4ZM200,304c0,9.79-18.7,24-48,24s-48-14.21-48-24v-8h96Zm0-24H104v-5.83l48-82.29,48,82.29Zm39.74-95.78a8,8,0,1,1,8-8A8,8,0,0,1,239.74,184.22ZM328,191.88l48,82.29V280H280v-5.83ZM376,304c0,9.79-18.7,24-48,24s-48-14.21-48-24v-8h96Z"/><path class="cls-1" d="M88,168h16v16H88Z"/><path class="cls-1" d="M376,168h16v16H376Z"/><path class="cls-1" d="M312,400h16v16H312Z"/><path class="cls-1" d="M152,400h16v16H152Z"/></svg>