<svg id="Слой_1" data-name="Слой 1" xmlns="http://www.w3.org/2000/svg" viewBox="0 0 452.14 516.05"><defs><style>.cls-1{fill:#e6e7ed;}</style></defs><title>3</title><path class="cls-1" d="M306.06,165.15a10,10,0,0,0-8.07-6.8L254.49,152,235,112.62a10,10,0,0,0-9-5.57h0a10,10,0,0,0-9,5.58l-19.45,39.42-43.5,6.34a10,10,0,0,0-8.57,10,10.19,10.19,0,0,0,3.18,7.23l31.34,30.54-7.42,43.33A10,10,0,0,0,187.19,260l38.9-20.46L265,260a10,10,0,0,0,14.51-10.54l-7.44-43.33,31.47-30.69A10,10,0,0,0,306.06,165.15Zm-51.72,30a10,10,0,0,0-2.88,8.85l4.91,28.53L230.74,219.1a10,10,0,0,0-9.31,0L195.8,232.58,200.69,204a10,10,0,0,0-2.88-8.85L177.08,175l28.65-4.18a10,10,0,0,0,7.52-5.47l12.81-26,12.82,26a10,10,0,0,0,7.53,5.46L275.07,175Z"/><path class="cls-1" d="M450.81,443.42,368.15,299.65a181.07,181.07,0,0,0,39.92-113.6c0-100.35-81.64-182-182-182s-182,81.65-182,182A181.07,181.07,0,0,0,84,299.65L1.33,443.42a10,10,0,0,0,10,14.89l64.51-8.66,24.76,60.2a10,10,0,0,0,8.58,6.18l.67,0a10,10,0,0,0,8.66-5L202,366.52l0-.07a182.15,182.15,0,0,0,48.18,0,.16.16,0,0,0,0,.07l83.44,144.53a10,10,0,0,0,8.66,5l.67,0a10,10,0,0,0,8.58-6.18l24.75-60.2,64.52,8.66a10,10,0,0,0,10-14.89Zm-339.45,40-18-43.82,16.17-26.39a10,10,0,1,0-17.05-10.45L76.11,429.44l-47.33,6.35,69.28-120.5a182,182,0,0,0,83.14,47.16ZM226.07,348.05c-89.33,0-162-72.67-162-162s72.67-162,162-162,162,72.67,162,162S315.4,348.05,226.07,348.05Zm150,81.39-16.35-26.67a10,10,0,0,0-17.05,10.45l16.17,26.39-18,43.82-69.84-121a182,182,0,0,0,83.14-47.16l69.28,120.5Z"/><path class="cls-1" d="M226.07,56.05A130,130,0,0,0,162.4,72.69a10,10,0,0,0,9.81,17.43A110,110,0,0,1,325.4,233.38,10,10,0,0,0,343.45,242a128.92,128.92,0,0,0,12.62-55.95C356.07,114.37,297.75,56.05,226.07,56.05Z"/><path class="cls-1" d="M319.12,262.47a10,10,0,0,0-14.14.22l-.22.22a10,10,0,0,0,14.31,14l.26-.28A10,10,0,0,0,319.12,262.47Z"/><path class="cls-1" d="M292.66,286.4a10,10,0,0,0-13.59-3.94A110,110,0,0,1,125.91,140.51a10,10,0,0,0-18.2-8.3,128.9,128.9,0,0,0-11.64,53.84c0,71.68,58.32,130,130,130A130.2,130.2,0,0,0,288.73,300,10,10,0,0,0,292.66,286.4Z"/><path class="cls-1" d="M145.07,97a10,10,0,0,0-14.13.5l-.22.24a10,10,0,1,0,14.68,13.58l.17-.19A10,10,0,0,0,145.07,97Z"/></svg>