<svg id="Слой_1" data-name="Слой 1" xmlns="http://www.w3.org/2000/svg" viewBox="0 0 153.94 217.02"><defs><style>.cls-1{fill:#fff;}</style></defs><title>location</title><path class="cls-1" d="M77.64,0a76.3,76.3,0,0,0-64.9,116.41L73.3,214a6.36,6.36,0,0,0,5.4,3h0a6.36,6.36,0,0,0,5.41-3.1l59-98.54A76.31,76.31,0,0,0,77.64,0Zm54.62,108.85L78.61,198.44,23.54,109.71a63.62,63.62,0,1,1,108.72-.86Z"/><path class="cls-1" d="M77.64,38.15a38.15,38.15,0,1,0,38.15,38.14A38.18,38.18,0,0,0,77.64,38.15Zm0,63.66a25.52,25.52,0,1,1,25.48-25.52A25.54,25.54,0,0,1,77.64,101.81Z"/></svg>