<svg id="Слой_1" data-name="Слой 1" xmlns="http://www.w3.org/2000/svg" viewBox="0 0 384.22 389.65"><defs><style>.cls-1{fill:#fff;}</style></defs><title>phone</title><path class="cls-1" d="M353.41,257.7a218,218,0,0,1-68.47-10.9c-10.72-3.66-23.9-.3-30.44,6.42l-43.18,32.59C161.25,259.08,130.4,228.25,104,178.55l31.64-42.05a31.06,31.06,0,0,0,7.63-31.45,218.34,218.34,0,0,1-10.95-68.58A30.85,30.85,0,0,0,101.55,5.65H31A30.85,30.85,0,0,0,.22,36.47c0,194.75,158.44,353.18,353.19,353.18a30.84,30.84,0,0,0,30.81-30.81V288.52A30.86,30.86,0,0,0,353.41,257.7Z"/></svg>