<svg id="Слой_1" data-name="Слой 1" xmlns="http://www.w3.org/2000/svg" viewBox="0 0 480 480"><defs><style>.cls-1{fill:#daa772;}</style></defs><title>1</title><path class="cls-1" d="M352,368h16v16H352Z"/><path class="cls-1" d="M384,368h16v16H384Z"/><path class="cls-1" d="M416,368h16v16H416Z"/><path class="cls-1" d="M352,336h16v16H352Z"/><path class="cls-1" d="M384,336h16v16H384Z"/><path class="cls-1" d="M416,336h16v16H416Z"/><path class="cls-1" d="M32,464H64v16H32Z"/><path class="cls-1" d="M112,464h32v16H112Z"/><path class="cls-1" d="M192,464h32v16H192Z"/><path class="cls-1" d="M272,464h32v16H272Z"/><path class="cls-1" d="M376,464h32v16H376Z"/><path class="cls-1" d="M424,208a8,8,0,0,0-8-8H387.31L344,156.69V128a8,8,0,0,0-8-8H307.31L264,76.69V48a8,8,0,0,0-8-8H227.31L189.66,2.34A8,8,0,0,0,184,0H8A8,8,0,0,0,0,8V440a8,8,0,0,0,8,8H456a8,8,0,0,0,8-8V312a8,8,0,0,0-4.42-7.16L336,243.06V216a8,8,0,0,0-8-8H256V136a8,8,0,0,0-8-8H176V72a8,8,0,0,0-8-8H96V16h84.69L216,51.31V80a8,8,0,0,0,8,8h28.69L296,131.31V160a8,8,0,0,0,8,8h28.69L376,211.31V240a8,8,0,0,0,8,8h32a8,8,0,0,0,8-8v-8h56V216H424ZM16,16H80V432H16ZM384,432V416h16v16Zm32,0V408a8,8,0,0,0-8-8H376a8,8,0,0,0-8,8v24H336V320H448V432Zm6.11-128H336V260.94ZM320,224V432H256V224Zm-80-80V432H176V144ZM160,80V432H96V80Zm88-8H232V56h16Zm80,80H312V136h16Zm80,80H392V216h16Z"/></svg>