<svg id="Слой_1" data-name="Слой 1" xmlns="http://www.w3.org/2000/svg" viewBox="0 0 481 480"><defs><style>.cls-1{fill:#daa772;}</style></defs><title>2</title><path class="cls-1" d="M359.63,242.29a34.8,34.8,0,0,0-61.26,0L252.25,328A27.15,27.15,0,0,0,276.45,368H381.83a27.16,27.16,0,0,0,23.79-40.3ZM381.83,352H276.17a11.14,11.14,0,0,1-9.8-16.53l46.09-85.59a18.79,18.79,0,0,1,27.81-6.13,19.34,19.34,0,0,1,5.44,6.44l46,85.35A11.16,11.16,0,0,1,381.83,352Z"/><rect class="cls-1" x="321" y="264" width="16" height="48"/><circle class="cls-1" cx="329" cy="327.78" r="8"/><path class="cls-1" d="M465,192a8,8,0,0,0-8-8H401V104a8,8,0,0,0-8-8H337V8a8,8,0,0,0-8-8H265a8,8,0,0,0-8,8V160H201a8,8,0,0,0-8,8v32H137a8,8,0,0,0-8,8v32H73a8,8,0,0,0-8,8v77.43L38.48,344H1v16H33V464H1v16H216.2a24.72,24.72,0,0,0,18.22-8H481V456H465ZM193,216V425.49a141.08,141.08,0,0,1-48-25v-68l2.06-2.48a25.58,25.58,0,0,0-2.06-35V216ZM129,385.32q-4.59-5-8.72-10.49L115.2,368,129,351.48ZM81,256h48v32.06c-.54,0-1.07-.06-1.62-.06a28.09,28.09,0,0,0-16.19,5.1L81,314.23ZM216.2,464H49V356.17l71.36-50a12.25,12.25,0,0,1,7-2.21,9.63,9.63,0,0,1,9.43,11.57,9.76,9.76,0,0,1-2.17,4.36L98.85,362.88a8,8,0,0,0-.25,9.92l8.88,11.84A155.19,155.19,0,0,0,129,407.93V408h.08a156.86,156.86,0,0,0,88,38.45A8.8,8.8,0,0,1,216.2,464ZM401,456V384H385v72H337V384H321v72H273V384H257v72H241c0-.27,0-.53,0-.8a24.72,24.72,0,0,0-22.33-24.67c-3.25-.33-6.47-.78-9.67-1.32V176h48v88h16V16h48V200h16V112h48V272h16V200h48V456Z"/></svg>