<svg id="Слой_1" data-name="Слой 1" xmlns="http://www.w3.org/2000/svg" viewBox="0 0 492.61 496.13"><defs><style>.cls-1{fill:#daa772;}</style></defs><title>4</title><path class="cls-1" d="M248,152.13a8,8,0,0,1-8-8H224a24,24,0,0,0,16,22.53v17.47h16V166.66a23.94,23.94,0,0,0-7.95-46.53,7.85,7.85,0,0,1-7.31-4.54A8,8,0,1,1,256,112.13h16A24,24,0,0,0,256,89.6V72.13H240V89.6A23.94,23.94,0,0,0,248,136.13a7.84,7.84,0,0,1,7.31,4.53A8.05,8.05,0,0,1,248,152.13Z"/><path class="cls-1" d="M251.58,390.85c1.16-.58,22.48-11.44,31.94-29.66,5.91,9.12,12.48,22.8,12.48,38.5,0,25-32.22,31.88-33.57,32.16l3.15,15.68c16-3.21,46.42-17.35,46.42-47.84,0-34.92-25.26-60.59-26.34-61.66L272,324.37v19.32c0,10.36-8.87,19.81-17.06,26.09-6.65-42.09-42.3-56.85-44-57.52l-11-4.39v11.82c0,23.7-5.9,31.37-12.16,39.49C182.3,366.4,176,374.58,176,391.69c0,44.29,31.4,56,48,56l.06-16c-3.28,0-32.06-1.53-32.06-40,0-11.67,3.58-16.32,8.53-22.75,5.7-7.42,12.57-16.34,14.77-35.76,10.33,7.65,24.7,23.19,24.7,50.51v12.94Z"/><path class="cls-1" d="M471.84,384.13H413.76a60.31,60.31,0,0,0,2.24-16c0-12.95-7-23.18-14.36-34C393,321.38,384,308.2,384,288.13v-8h-8a67.44,67.44,0,0,0-35.58,12.64c-4.14-10.09-11.2-16.55-17.72-22.37-10-9-18.7-16.76-18.7-38.27v-9.45l-9.31,1.55c-.47.07-39,7.33-51,56.34-6.41-9-14.32-16-21.47-22.23C209.8,247.54,200,239,200,224.13V210l-12.12,7.27C183.39,220,144,244.4,144,272.13c0,10.89,2.91,19,6,27.63a154.05,154.05,0,0,1,6.85,23.7c-16.39-15.4-37.92-25.07-41.71-26.68L104,292v12.14c0,20.07-9,33.25-17.64,46C79,361,72,371.18,72,384.13H24.5C12.25,384.13,1,394.07.07,406.28A24,24,0,0,0,24,432.13H47.59a8.16,8.16,0,0,1,8.16,6.78,8,8,0,0,1-7.91,9.22H40.5c-12.25,0-23.51,9.94-24.43,22.15A24,24,0,0,0,40,496.13H232v-16H40.26a8.18,8.18,0,0,1-8.17-6.79A8,8,0,0,1,40,464.13h7.35c12.24,0,23.51-9.95,24.43-22.16a24,24,0,0,0-23.94-25.84H24.26a8.18,8.18,0,0,1-8.17-6.79A8,8,0,0,1,24,400.13H74.24c5.9,21.06,26.51,48,93.76,48v-16c-69.61,0-80-30.07-80-48,0-8,5.11-15.51,11.58-25,7.51-11,16.54-24.3,19.46-42.66,16.77,9,41,25.92,41,43.67h16c0-35.23-6.32-52.88-10.94-65.76-2.93-8.21-5.06-14.14-5.06-22.24,0-11.71,14.63-25.52,26.05-34.2,4.38,14,15.15,23.34,25.65,32.48C226.25,283.07,240,295,240,320.13h15.84a74.84,74.84,0,0,0-.58-8H256c0-46,20.6-63,32.73-69,2.91,20.93,14.08,30.93,23.3,39.18,7.62,6.82,13.71,12.39,15.43,23.27C318.55,317.41,312,334.72,312,360.13h16c0-48,27-60,40.5-63,2.29,20.12,12,34.31,19.92,46,6.47,9.5,11.58,17,11.58,25,0,17.93-10.39,48-80,48v16c50.8,0,74.93-15.39,86.28-32h65.46a8.18,8.18,0,0,1,8.17,6.78,8,8,0,0,1-7.91,9.22H440.34c-12.24,0-23.51,9.94-24.43,22.15a24,24,0,0,0,23.93,25.85h15.75a8.16,8.16,0,0,1,8.16,6.78,8,8,0,0,1-7.91,9.22H334.42a18.91,18.91,0,0,1-15.76-8.44,34.87,34.87,0,0,0-29.08-15.56H248v16h41.58a18.91,18.91,0,0,1,15.76,8.44,34.9,34.9,0,0,0,29.08,15.56H455.35c12.24,0,23.51-9.95,24.43-22.16a24,24,0,0,0-23.94-25.84H440.1a8.18,8.18,0,0,1-8.17-6.79,8,8,0,0,1,7.91-9.21h31.51c12.24,0,23.51-9.95,24.43-22.16A24,24,0,0,0,471.84,384.13Z"/><path class="cls-1" d="M247.05,216.13h1.58a71.22,71.22,0,0,0,61.83-106.55L247.84,0,185.23,109.58a71.21,71.21,0,0,0,61.82,106.55Zm-47.93-98.61,48.72-85.26,48.73,85.27a55.21,55.21,0,0,1-47.93,82.6h-1.58a55.21,55.21,0,0,1-47.94-82.61Z"/><path class="cls-1" d="M439.84,223.69a56,56,0,0,0,44.8-89.6l-44.8-59.74L395,134.09a56,56,0,0,0,44.8,89.6Zm-32-80,32-42.67,32,42.67a40,40,0,1,1-64,0Z"/><path class="cls-1" d="M71.84,207.69a56,56,0,0,0,44.8-89.6L71.84,58.35,27,118.09a56,56,0,0,0,44.8,89.6Zm-32-80L71.84,85l32,42.67a40,40,0,1,1-64,0Z"/><path class="cls-1" d="M34.06,311.62c16.49-1,29.94-16,29.94-32.52v-1.75A32.17,32.17,0,0,0,60.62,263L32,205.8,3.38,263.05A32,32,0,0,0,0,277.35v2.34A32,32,0,0,0,34.06,311.62ZM17.69,270.2,32,241.57,46.31,270.2A16,16,0,0,1,48,277.35v1.9a16.28,16.28,0,0,1-14.15,16.33A16,16,0,0,1,16,279.69v-2.34A16,16,0,0,1,17.69,270.2Z"/><path class="cls-1" d="M448,229.8l-28.62,57.25a32,32,0,0,0-3.38,14.3v1.75c0,16.52,13.45,31.48,29.94,32.52A32,32,0,0,0,480,303.69v-2.34A32.17,32.17,0,0,0,476.62,287Zm16,73.89a16,16,0,0,1-17.85,15.89A16.29,16.29,0,0,1,432,303.25v-1.58a16.33,16.33,0,0,1,1.69-7.47L448,265.57l14.31,28.63a16,16,0,0,1,1.69,7.15Z"/></svg>