<svg id="Слой_1" data-name="Слой 1" xmlns="http://www.w3.org/2000/svg" viewBox="0 0 496.22 496"><defs><style>.cls-1{fill:#daa772;}</style></defs><title>3</title><path class="cls-1" d="M392.22,168a24,24,0,0,0,22.53-16h81.47V24H414.75A24,24,0,0,0,392.22,8H360A24,24,0,0,0,337,25.69L316.56,12.1A71.68,71.68,0,0,0,276.62,0H152a15.93,15.93,0,0,0-16,15.55A31.63,31.63,0,0,0,140.45,32H104A23.77,23.77,0,0,0,81.47,64h-9C60.25,64,49,74,48.07,86.15A24,24,0,0,0,72,112h9.47a23.6,23.6,0,0,0,16.29,31.07A23.49,23.49,0,0,0,97,158.62,24.43,24.43,0,0,0,120.54,176h156.3a71.7,71.7,0,0,0,39.94-12.1l20.38-13.59A24,24,0,0,0,360.22,168h8v16.81a40,40,0,0,0,0,78.38v17.62a39.87,39.87,0,0,0-4.44,77A24,24,0,0,1,344.22,368h-24a24,24,0,0,0-24-24h-9.69A24,24,0,0,0,264,328H229.91a120.1,120.1,0,0,0-113-72C52.86,257.68,1,310.09,0,374.12A120,120,0,0,0,229.91,424H264a24,24,0,0,0,22.53-16h9.69a24,24,0,0,0,24-24h24a40,40,0,0,0,36.86-24.5,39.88,39.88,0,0,0,3.14-78.69V263.19a40,40,0,0,0,0-78.38V168ZM120,480.43a104,104,0,1,1,104-104A104.12,104.12,0,0,1,120,480.43ZM264.22,408H235.75a116.78,116.78,0,0,0,0-64h28.47a8,8,0,0,1,8,8v48A8,8,0,0,1,264.22,408Zm32-16h-8V360h8a8,8,0,0,1,8,8v16A8,8,0,0,1,296.22,392Zm104-72a24,24,0,0,1-16,22.53V328h-16v14.53a23.86,23.86,0,0,1,0-45.06V312h16V297.47A24,24,0,0,1,400.22,320Zm0-96a24,24,0,0,1-16,22.53V232h-16v14.53a23.86,23.86,0,0,1,0-45.06V216h16V201.47A24,24,0,0,1,400.22,224Zm80-88h-64V40h64ZM64.31,86.78A8.16,8.16,0,0,1,72.47,80H200.22V96h-128A8,8,0,0,1,64.31,86.78ZM104.47,112h95.75v16h-96a8,8,0,0,1-7.91-9.22A8.16,8.16,0,0,1,104.47,112Zm203.44,38.59A55.86,55.86,0,0,1,276.84,160H120.48a8.16,8.16,0,0,1-8.17-6.78,8,8,0,0,1,7.91-9.22h82a35.07,35.07,0,0,0,8.34,13.66l11.31-11.32a19.18,19.18,0,0,1-5.65-13.65V75.31a19.18,19.18,0,0,1,5.65-13.65L210.56,50.34A35.07,35.07,0,0,0,202.22,64H104.48a8.16,8.16,0,0,1-8.17-6.78A8,8,0,0,1,104.22,48H228.91l7.59,7.6A55.64,55.64,0,0,0,276.1,72h12.12V56H276.1a39.78,39.78,0,0,1-28.29-11.71L235.53,32H168.22a16,16,0,0,1-16-16H276.84a55.88,55.88,0,0,1,31.07,9.41l28.31,18.87v87.44ZM352.22,144V32a8,8,0,0,1,8-8h32a8,8,0,0,1,8,8V144a8,8,0,0,1-8,8h-32A8,8,0,0,1,352.22,144Z"/><path class="cls-1" d="M128.22,352a8,8,0,0,1,8,8h16a24,24,0,0,0-24-24V320h-16v16h-24v24a24,24,0,0,0,24,24h16a8,8,0,0,1,8,8v8h-24a8,8,0,0,1-8-8h-16a24,24,0,0,0,24,24v16h16V416h24V392a24,24,0,0,0-24-24h-16a8,8,0,0,1-8-8v-8Z"/></svg>