<svg id="Слой_1" data-name="Слой 1" xmlns="http://www.w3.org/2000/svg" viewBox="0 0 443.73 477.87"><defs><style>.cls-1{fill:#dedede;}</style></defs><title>Скачать</title><path class="cls-1" d="M392.53,153.6H307.2a17.07,17.07,0,1,0,0,34.13h85.33A17.07,17.07,0,0,1,409.6,204.8V426.67a17.07,17.07,0,0,1-17.07,17.07H51.2a17.07,17.07,0,0,1-17.07-17.07V204.8A17.07,17.07,0,0,1,51.2,187.73h85.33a17.07,17.07,0,1,0,0-34.13H51.2A51.2,51.2,0,0,0,0,204.8V426.67a51.2,51.2,0,0,0,51.2,51.2H392.53a51.2,51.2,0,0,0,51.2-51.2V204.8A51.2,51.2,0,0,0,392.53,153.6Z"/><path class="cls-1" d="M318.88,243.93a17.08,17.08,0,0,0-23.71,0l-56.24,56.2V17.07a17.07,17.07,0,1,0-34.13,0V300.13l-56.2-56.2a17.07,17.07,0,0,0-24.13,24.14L209.8,353.4a17.07,17.07,0,0,0,24.14,0l0,0,85.33-85.33A17.07,17.07,0,0,0,318.88,243.93Z"/></svg>