<svg id="Слой_1" data-name="Слой 1" xmlns="http://www.w3.org/2000/svg" viewBox="0 0 480 480"><defs><style>.cls-1{fill:#fff;}</style></defs><title>3</title><path class="cls-1" d="M472,160H419.2a103.8,103.8,0,0,1-91.76-55.06l-9.79-18.35A87.86,87.86,0,0,0,272,46V32.63C272,15.77,259.21,1.31,242.39.09A32,32,0,0,0,208,32V46a87.9,87.9,0,0,0-45.65,40.59l-9.79,18.35A103.8,103.8,0,0,1,60.8,160H8a8,8,0,0,0-8,8v32a8,8,0,0,0,8,8H60.58L34.4,280H24a8,8,0,0,0-8,7.9,64,64,0,1,0,128,0,8,8,0,0,0-8-7.9H125.6L99.42,208h19.52a96,96,0,0,0,63.21-23.75l21.06-18.43a53.92,53.92,0,0,1,4.79-3.73v212L195.06,400H176a8,8,0,0,0-6.4,3.2L148,432H112a8,8,0,0,0-8,8v32a8,8,0,0,0,8,8H368a8,8,0,0,0,8-8V440a8,8,0,0,0-8-8H332l-21.6-28.8A8,8,0,0,0,304,400H284.94L272,374.11v-212a53.92,53.92,0,0,1,4.79,3.73h0l21.06,18.43A96,96,0,0,0,361.06,208h19.52L354.4,280H344a8,8,0,0,0-8,7.9,64,64,0,1,0,128,0,8,8,0,0,0-8-7.9H445.6l-26.18-72H472a8,8,0,0,0,8-8V168A8,8,0,0,0,472,160ZM224,32.13a16,16,0,0,1,17.82-15.9A16.28,16.28,0,0,1,256,32.55V41.6a87.81,87.81,0,0,0-32,0ZM79.51,336a48.07,48.07,0,0,1-47.33-40h94.67A48.09,48.09,0,0,1,79.51,336Zm28.58-56H50.93l26.19-72h4.79ZM360,464H120V448H360Zm-48.49-32h-144l12-16h120Zm-54.67-52.42L267.06,400H212.94l10.22-20.42A8.08,8.08,0,0,0,224,376V154.35a55.7,55.7,0,0,1,32,0V376A8.08,8.08,0,0,0,256.84,379.58ZM399.51,336a48.07,48.07,0,0,1-47.33-40h94.67A48.09,48.09,0,0,1,399.51,336Zm28.58-56H370.93l26.19-72h4.79ZM464,192H361.06a80,80,0,0,1-52.68-19.79l-21.05-18.43h0a71.88,71.88,0,0,0-94.66,0l-21,18.43A80,80,0,0,1,118.94,192H16V176H60.8a119.77,119.77,0,0,0,105.88-63.53l9.79-18.35A72,72,0,0,1,277.69,66.65a73.43,73.43,0,0,1,26.25,28.24l9.38,17.58A119.77,119.77,0,0,0,419.2,176H464Z"/><path class="cls-1" d="M239.51,72.13a24,24,0,1,0,24,24A24,24,0,0,0,239.51,72.13Zm0,32a8,8,0,1,1,8-8A8,8,0,0,1,239.51,104.13Z"/></svg>