<svg id="Слой_1" data-name="Слой 1" xmlns="http://www.w3.org/2000/svg" viewBox="0 0 512.19 511"><defs><style>.cls-1{fill:#fff;}</style></defs><title>5</title><path class="cls-1" d="M498.34,311.48a7.52,7.52,0,0,0-9.18,5.36,240.53,240.53,0,0,1-465.07.2,7.51,7.51,0,1,0-14.53,3.84C39.11,432.82,140.69,511,256.6,511A255.59,255.59,0,0,0,503.7,320.66a7.53,7.53,0,0,0-5.36-9.18Z"/><path class="cls-1" d="M9.51,233.15a7.52,7.52,0,0,0,8.36-6.57C32.32,106,135,15,256.6,15c121.82,0,224.47,91.09,238.77,211.89a7.52,7.52,0,0,0,7.45,6.64,6.8,6.8,0,0,0,.9-.06,7.52,7.52,0,0,0,6.58-8.35C495.1,96.8,386,0,256.6,0,127.35,0,18.3,96.64,2.94,224.79a7.53,7.53,0,0,0,6.57,8.36Z"/><path class="cls-1" d="M256.6,474.92a217.27,217.27,0,0,0,131.93-44.2,221.52,221.52,0,0,0,78.14-111.83,7.51,7.51,0,1,0-14.38-4.35,206.44,206.44,0,0,1-72.81,104.18,204,204,0,0,1-226.39,13,7.52,7.52,0,0,0-7.63,12.95A218.82,218.82,0,0,0,256.6,474.92Z"/><path class="cls-1" d="M117.84,425.35a7.51,7.51,0,1,0,9.52-11.63,204.17,204.17,0,0,1-66.55-99.53,7.52,7.52,0,0,0-14.4,4.33,219.12,219.12,0,0,0,71.43,106.83Z"/><path class="cls-1" d="M400.49,90a219.46,219.46,0,0,0-361,133.41,7.53,7.53,0,0,0,6.34,8.53A8.29,8.29,0,0,0,47,232a7.52,7.52,0,0,0,7.42-6.42,204.42,204.42,0,0,1,404.36-.22,7.52,7.52,0,1,0,14.87-2.21A219.6,219.6,0,0,0,400.49,90Z"/><path class="cls-1" d="M256.6,270.92A32.77,32.77,0,0,0,232,325.37l-3.16,4a18.92,18.92,0,0,0-1.21,21.69,19.41,19.41,0,0,0,16.64,9h24.62a19.41,19.41,0,0,0,16.63-9,18.9,18.9,0,0,0-1.21-21.69l-3.15-4a32.78,32.78,0,0,0-24.58-54.45Zm7.32,56.31a7.46,7.46,0,0,0,1.13,1.95l7.45,9.51a4,4,0,0,1-3.13,6.42H243.83a4,4,0,0,1-3.13-6.42l7.38-9.43a7.83,7.83,0,0,0,1.42-2.71,7.57,7.57,0,0,0-3-8.22,17.74,17.74,0,1,1,20.14,0A7.57,7.57,0,0,0,263.92,327.23Z"/><path class="cls-1" d="M486.19,245.11h-9.65s-21.46,8.27-24.69,19H431.54a27,27,0,0,0-24.69-19H397.1a27,27,0,0,0-24.69,19h-17.7a27.7,27.7,0,0,0-18.22-23.58V191a80.5,80.5,0,0,0-161,0v49.5a27.81,27.81,0,0,0-18,23.58H139.78a27,27,0,0,0-24.68-19h-9.76a27,27,0,0,0-24.68,19H60.34c-3.22-10.72-24.69-19-24.69-19H26.28c-12.21,0-23.09,8.32-25.66,20.25A26.05,26.05,0,0,0,26,297.11H36.48a25.46,25.46,0,0,0,24.3-18h20a25.44,25.44,0,0,0,24.29,18h9.6a25.44,25.44,0,0,0,24.29-18h18.54v88.37a27.63,27.63,0,0,0,27.63,27.63h161.5a7.87,7.87,0,0,0,7.87-7.87v-49a2.17,2.17,0,0,0-.6-1.53c-6.52-6.6-14.4-2.09-14.4,4.26v35.51a3.59,3.59,0,0,1-3.59,3.59H185.09a12.6,12.6,0,0,1-12.6-12.6V266.71a12.6,12.6,0,0,1,12.6-12.6h141.8a12.6,12.6,0,0,1,12.6,12.6v41a7.71,7.71,0,0,0,7.29,7.82,7.45,7.45,0,0,0,7.71-7.39v-29H372a25.77,25.77,0,0,0,24.64,18h9.73a25.75,25.75,0,0,0,24.63-18h20.28a25.76,25.76,0,0,0,24.63,18h10c12.21,0,23.08-8.32,25.65-20.26a26,26,0,0,0-25.38-31.74Zm-450.43,37h-9.9a11,11,0,1,1-.06-22h9.89a11,11,0,1,1,.07,22Zm79.44,0h-9.9a11,11,0,1,1-.06-22h9.89a11,11,0,1,1,.07,22ZM248.51,126.24a65.55,65.55,0,0,1,73,65v47.87h-21V191.92c0-21.52-17.38-42-38.73-44.68a44.5,44.5,0,0,0-50.27,44v.6a7.7,7.7,0,0,0,6.58,7.74,7.51,7.51,0,0,0,8.42-7.45v-.34c0-14.4,10.18-27.07,24.38-29.46a29.49,29.49,0,0,1,34.62,28.91v47.87h-59V224.64a7.7,7.7,0,0,0-6.58-7.74,7.51,7.51,0,0,0-8.42,7.46v14.75h-21v-47C190.49,158.7,215.28,129.94,248.51,126.24ZM407,282.11h-9.89a11,11,0,1,1-.06-22h9.89a11,11,0,1,1,.06,22Zm79.44,0H476.5a11,11,0,1,1-.06-22h9.89a11,11,0,1,1,.06,22Z"/></svg>